<?xml version="1.0" encoding="UTF-8" standalone="no"?>
<!-- Created with Inkscape (http://www.inkscape.org/) -->

<svg
   xmlns:dc="http://purl.org/dc/elements/1.1/"
   xmlns:cc="http://creativecommons.org/ns#"
   xmlns:rdf="http://www.w3.org/1999/02/22-rdf-syntax-ns#"
   xmlns:svg="http://www.w3.org/2000/svg"
   xmlns="http://www.w3.org/2000/svg"
   xmlns:xlink="http://www.w3.org/1999/xlink"
   xmlns:sodipodi="http://sodipodi.sourceforge.net/DTD/sodipodi-0.dtd"
   xmlns:inkscape="http://www.inkscape.org/namespaces/inkscape"
   width="800mm"
   height="500mm"
   viewBox="0 0 800 500"
   version="1.1"
   id="svg903"
   sodipodi:docname="WackyWatersLogo2.svg"
   inkscape:version="0.92.4 (5da689c313, 2019-01-14)"
   inkscape:export-filename="C:\Users\GameDev\Desktop\Proyectos\Juegos\0LittleBoatsGame\CM\Material\WackyWatersLogo.png"
   inkscape:export-xdpi="16.57757"
   inkscape:export-ydpi="16.57757">
  <defs
     id="defs897">
    <linearGradient
       inkscape:collect="always"
       id="linearGradient1709">
      <stop
         style="stop-color:#ff81b9;stop-opacity:1"
         offset="0"
         id="stop1705" />
      <stop
         style="stop-color:#fffdb7;stop-opacity:1"
         offset="1"
         id="stop1707" />
    </linearGradient>
    <linearGradient
       inkscape:collect="always"
       xlink:href="#linearGradient1709"
       id="linearGradient1711"
       x1="470.15536"
       y1="174.42342"
       x2="470.15536"
       y2="-40.267056"
       gradientUnits="userSpaceOnUse" />
  </defs>
  <sodipodi:namedview
     id="base"
     pagecolor="#ffffff"
     bordercolor="#666666"
     borderopacity="1.0"
     inkscape:pageopacity="0.0"
     inkscape:pageshadow="2"
     inkscape:zoom="0.10797798"
     inkscape:cx="684.43634"
     inkscape:cy="1023.0788"
     inkscape:document-units="mm"
     inkscape:current-layer="layer7"
     showgrid="false"
     inkscape:snap-global="true"
     inkscape:window-width="1028"
     inkscape:window-height="768"
     inkscape:window-x="705"
     inkscape:window-y="96"
     inkscape:window-maximized="1"
     inkscape:snap-bbox="true" />
  <metadata
     id="metadata900">
    <rdf:RDF>
      <cc:Work
         rdf:about="">
        <dc:format>image/svg+xml</dc:format>
        <dc:type
           rdf:resource="http://purl.org/dc/dcmitype/StillImage" />
        <dc:title></dc:title>
      </cc:Work>
    </rdf:RDF>
  </metadata>
  <g
     inkscape:groupmode="layer"
     id="layer10"
     inkscape:label="Capa 4"
     style="display:none">
    <rect
       style="opacity:1;fill:#87aade;fill-opacity:1;stroke:#1a1a1a;stroke-width:0.69999999;stroke-miterlimit:4;stroke-dasharray:none;stroke-opacity:1"
       id="rect1651"
       width="1013.4861"
       height="474.67065"
       x="-85.526245"
       y="23.191168" />
  </g>
  <g
     inkscape:label="Capa 1"
     inkscape:groupmode="layer"
     id="layer1"
     style="display:none"
     sodipodi:insensitive="true"
     transform="translate(0,203)">
    <g
       id="g880"
       transform="matrix(0.65101237,0,0,0.65101237,39.26264,-26.959316)"
       style="fill:#f6922e;fill-opacity:1;stroke:#f6922e;stroke-opacity:1">
      <path
         inkscape:connector-curvature="0"
         id="path857"
         d="m 167.34896,204.6304 a 42.333335,42.333335 0 0 0 -42.33333,42.33334 42.333335,42.333335 0 0 0 42.33333,42.33332 42.333335,42.333335 0 0 0 42.33333,-42.33332 42.333335,42.333335 0 0 0 -42.33333,-42.33334 z m 0,12.56771 a 29.765627,29.765627 0 0 1 29.76562,29.76563 29.765627,29.765627 0 0 1 -29.76562,29.76561 29.765627,29.765627 0 0 1 -29.76563,-29.76561 29.765627,29.765627 0 0 1 29.76563,-29.76563 z"
         style="opacity:1;fill:#f6922e;fill-opacity:1;stroke:#f6922e;stroke-width:0.76854235;stroke-miterlimit:4;stroke-dasharray:none;stroke-opacity:1" />
      <circle
         r="6.430583"
         cy="246.96373"
         cx="167.34895"
         id="path862"
         style="opacity:1;fill:#f6922e;fill-opacity:1;stroke:#f6922e;stroke-width:0.78719008;stroke-miterlimit:4;stroke-dasharray:none;stroke-opacity:1" />
      <path
         inkscape:connector-curvature="0"
         id="path866"
         d="m 99.699696,246.91251 135.298524,0.10244"
         style="fill:#f6922e;fill-opacity:1;stroke:#f6922e;stroke-width:3.61719179;stroke-linecap:butt;stroke-linejoin:miter;stroke-miterlimit:4;stroke-dasharray:none;stroke-opacity:1" />
      <path
         style="fill:#f6922e;fill-opacity:1;stroke:#f6922e;stroke-width:3.61719179;stroke-linecap:butt;stroke-linejoin:miter;stroke-miterlimit:4;stroke-dasharray:none;stroke-opacity:1"
         d="m 167.40017,179.31446 -0.10244,135.29853"
         id="path868"
         inkscape:connector-curvature="0" />
      <path
         style="fill:#f6922e;fill-opacity:1;stroke:#f6922e;stroke-width:3.61719179;stroke-linecap:butt;stroke-linejoin:miter;stroke-miterlimit:4;stroke-dasharray:none;stroke-opacity:1"
         d="M 119.47748,294.76276 215.22042,199.1647"
         id="path870"
         inkscape:connector-curvature="0" />
      <path
         inkscape:connector-curvature="0"
         id="path872"
         d="m 119.54991,199.09226 95.59806,95.74294"
         style="fill:#f6922e;fill-opacity:1;stroke:#f6922e;stroke-width:3.61719179;stroke-linecap:butt;stroke-linejoin:miter;stroke-miterlimit:4;stroke-dasharray:none;stroke-opacity:1" />
    </g>
  </g>
  <g
     style="display:inline"
     id="g1587"
     inkscape:groupmode="layer"
     inkscape:label="Capa 1 copia"
     transform="translate(0,203)">
    <path
       style="opacity:1;fill:#67000a;fill-opacity:1;stroke:none;stroke-width:1.05006504;stroke-miterlimit:4;stroke-dasharray:none;stroke-opacity:1"
       d="m 233.02528,-60.698738 -0.0354,48.783243 a 81.283909,81.283909 0 0 0 -51.4428,21.2617826 l -34.46696,-34.5203166 -4.9169,4.909268 34.45478,34.508099 a 81.283909,81.283909 0 0 0 -21.37611,51.420001 l -48.73139,-0.03958 -0.004,6.945478 48.78168,0.03958 a 81.283909,81.283909 0 0 0 21.26179,51.442823 l -34.52032,34.46696 4.90779,4.91533 34.50809,-34.45471 a 81.283909,81.283909 0 0 0 51.41994,21.37758 l -0.0354,48.72988 6.94548,0.009 0.0134,-16.26105 V -60.69068 Z m -0.0564,72.866192 -0.0309,38.704049 a 18.661267,18.661267 0 0 0 -7.02478,2.911164 L 198.59738,26.425802 a 57.152751,57.152751 0 0 1 34.36939,-14.258348 z m -39.29846,19.155388 27.31569,27.356864 a 18.661267,18.661267 0 0 0 -2.90956,7.032365 l -38.65379,-0.03079 a 57.152751,57.152751 0 0 1 14.24765,-34.358728 z m -14.30251,41.304261 38.70556,0.03079 a 18.661267,18.661267 0 0 0 2.91111,7.026295 L 193.62781,106.99841 A 57.152751,57.152751 0 0 1 179.36794,72.627488 Z m 46.51223,11.982787 a 18.661267,18.661267 0 0 0 7.03238,2.911117 l -0.0308,38.653753 a 57.152751,57.152751 0 0 1 -34.36027,-14.24919 z"
       id="path1573"
       inkscape:connector-curvature="0" />
  </g>
  <g
     inkscape:groupmode="layer"
     id="layer8"
     inkscape:label="Capa 3"
     style="display:inline"
     transform="translate(0,203)" />
  <g
     inkscape:groupmode="layer"
     id="layer11"
     inkscape:label="Capa 5"
     style="display:none">
    <g
       id="g1495"
       transform="matrix(2.311023,0,0,2.311023,-20.394997,-102.82092)"
       style="fill:#4c0000;fill-opacity:1;stroke:#4a0000;stroke-width:1.29812646;stroke-miterlimit:4;stroke-dasharray:none;stroke-opacity:1">
      <path
         sodipodi:nodetypes="ccccccccccc"
         id="path1085-4"
         d="m 95.177273,96.000786 -12.957266,0.0047 6.921883,11.989094 c 12.66176,-0.007 25.32356,-0.0133 37.98536,-0.02 l 6.92188,-11.989092 c -4.31905,9.44e-4 -8.6382,0.0038 -12.95729,0.0047 l -12.95729,0.0047 m 0,0 -12.957277,0.0047 12.957277,-11.5636 12.95729,11.553596"
         style="font-style:normal;font-variant:normal;font-weight:normal;font-stretch:normal;font-size:10.58333302px;line-height:1.25;font-family:Deneane;-inkscape-font-specification:Deneane;text-align:start;letter-spacing:0px;word-spacing:0px;text-anchor:start;display:inline;fill:#4c0000;fill-opacity:1;stroke:#4c0000;stroke-width:1.29812646;stroke-linecap:butt;stroke-linejoin:miter;stroke-miterlimit:4;stroke-dasharray:none;stroke-opacity:1"
         inkscape:connector-curvature="0" />
    </g>
  </g>
  <g
     inkscape:groupmode="layer"
     id="layer7"
     inkscape:label="Capa 2"
     transform="translate(0,203)"
     style="display:inline">
    <text
       xml:space="preserve"
       style="font-style:normal;font-variant:normal;font-weight:normal;font-stretch:normal;font-size:42.44765472px;line-height:1.25;font-family:Deneane;-inkscape-font-specification:Deneane;letter-spacing:0px;word-spacing:0px;fill:#fff4dd;fill-opacity:1;stroke:#67000a;stroke-width:4.14599991;stroke-miterlimit:4;stroke-dasharray:none;stroke-opacity:1"
       x="259.85266"
       y="78.135262"
       id="text1469"><tspan
         sodipodi:role="line"
         x="259.85266"
         y="78.135262"
         style="font-style:normal;font-variant:normal;font-weight:normal;font-stretch:normal;font-size:123.47222137px;line-height:0.94999999;font-family:Hombre;-inkscape-font-specification:Hombre;text-align:start;text-anchor:start;fill:#fff4dd;fill-opacity:1;stroke:#67000a;stroke-width:4.14599991;stroke-miterlimit:4;stroke-dasharray:none;stroke-opacity:1"
         id="tspan1471">WACKY</tspan><tspan
         sodipodi:role="line"
         x="259.85266"
         y="195.43387"
         style="font-style:normal;font-variant:normal;font-weight:normal;font-stretch:normal;font-size:123.47222137px;line-height:0.94999999;font-family:Hombre;-inkscape-font-specification:Hombre;text-align:start;text-anchor:start;fill:#fff4dd;fill-opacity:1;stroke:#67000a;stroke-width:4.14599991;stroke-miterlimit:4;stroke-dasharray:none;stroke-opacity:1"
         id="tspan1473">WATERS</tspan></text>
    <text
       xml:space="preserve"
       style="font-style:normal;font-variant:normal;font-weight:normal;font-stretch:normal;font-size:28.38889694px;line-height:1.25;font-family:Deneane;-inkscape-font-specification:Deneane;letter-spacing:1.18558335px;word-spacing:0px;fill:#67000a;fill-opacity:1;stroke:none;stroke-width:2.13241649;stroke-miterlimit:4;stroke-dasharray:none;stroke-opacity:1"
       x="258.26569"
       y="-30.691648"
       id="text1519"><tspan
         sodipodi:role="line"
         id="tspan1517"
         x="258.26569"
         y="-30.691648"
         style="font-style:normal;font-variant:normal;font-weight:normal;font-stretch:normal;font-size:42.36144257px;font-family:Hombre;-inkscape-font-specification:Hombre;letter-spacing:0px;fill:#67000a;fill-opacity:1;stroke:none;stroke-width:2.13241649;stroke-miterlimit:4;stroke-dasharray:none;stroke-opacity:1">CAPTAINS OF THE</tspan><tspan
         sodipodi:role="line"
         x="258.26569"
         y="10.387693"
         style="letter-spacing:1.18558335px;fill:#67000a;fill-opacity:1;stroke:none;stroke-width:2.13241649;stroke-miterlimit:4;stroke-dasharray:none;stroke-opacity:1"
         id="tspan1521" /></text>
    <g
       id="g1465"
       transform="matrix(0.88215674,0,0,0.88215674,153.12996,21.98453)">
      <g
         transform="matrix(0.65064263,0.33469899,-0.33469899,0.65064263,359.78431,53.267622)"
         id="g1755">
        <path
           sodipodi:nodetypes="ccccccccc"
           inkscape:connector-curvature="0"
           style="opacity:1;fill:#fff4dd;fill-opacity:1;stroke:#67000a;stroke-width:5.40535021;stroke-miterlimit:4;stroke-dasharray:none;stroke-opacity:1"
           d="m 184.07455,-166.90819 c -23.23855,-1.1e-4 -42.07723,16.59279 -42.0774,37.06131 0.007,15.00714 10.28902,28.5291 26.04125,34.248433 l -4.31359,16.825676 h 20.69232 21.72496 l -5.49603,-17.053461 c 15.45557,-5.832908 25.48472,-19.210398 25.50538,-34.020648 -1.7e-4,-20.46834 -18.83854,-37.06117 -42.07689,-37.06131 z"
           id="path1727" />
        <circle
           style="opacity:1;fill:#67000a;fill-opacity:1;stroke:none;stroke-width:3.38610005;stroke-miterlimit:4;stroke-dasharray:none;stroke-opacity:1"
           id="path1737"
           cx="167.01651"
           cy="-128.5356"
           r="12.660416" />
        <circle
           r="8.5715504"
           cy="-125.58322"
           cx="203.17012"
           id="circle1739"
           style="opacity:1;fill:#67000a;fill-opacity:1;stroke:none;stroke-width:2.29250956;stroke-miterlimit:4;stroke-dasharray:none;stroke-opacity:1" />
        <path
           style="opacity:1;fill:#67000a;fill-opacity:1;stroke:none;stroke-width:2.80245733;stroke-miterlimit:4;stroke-dasharray:none;stroke-opacity:1"
           d="m 187.41655,-104.93051 a 3.0711999,3.0711999 0 0 0 3.07107,-3.07107 3.0711999,3.0711999 0 0 0 -0.34057,-1.40455 h 0.022 l -0.0611,-0.0681 a 3.0711999,3.0711999 0 0 0 -0.94347,-1.05175 l -1.62007,-1.80555 -2.62431,-2.92541 -2.62431,2.92541 -1.60086,1.78459 a 3.0711999,3.0711999 0 0 0 -1.00285,1.11777 l -0.0206,0.0231 h 0.009 a 3.0711999,3.0711999 0 0 0 -0.34301,1.40455 3.0711999,3.0711999 0 0 0 3.07107,3.07107 3.0711999,3.0711999 0 0 0 2.50485,-1.29766 3.0711999,3.0711999 0 0 0 2.50276,1.29766 z"
           id="path1741"
           inkscape:connector-curvature="0" />
        <path
           style="fill:none;stroke:#67000a;stroke-width:4.14599991;stroke-linecap:butt;stroke-linejoin:miter;stroke-miterlimit:4;stroke-dasharray:none;stroke-opacity:1"
           d="M 184.92903,-77.711874 V -95.351663"
           id="path1748"
           inkscape:connector-curvature="0" />
      </g>
      <rect
         transform="matrix(0.87564505,-0.48295523,0.40329439,0.91507029,0,0)"
         y="254.83705"
         x="474.69888"
         height="55.564655"
         width="0.32441393"
         id="rect1456"
         style="opacity:1;fill:#67000a;fill-opacity:1;stroke:#67000a;stroke-width:3.06466699;stroke-miterlimit:4;stroke-dasharray:none;stroke-opacity:1" />
    </g>
  </g>
</svg>
